<svg xmlns="http://www.w3.org/2000/svg" xmlns:xlink="http://www.w3.org/1999/xlink" width="100" height="100" viewBox="0 0 100 100" fill="none">
<path d="M100 50C100 77.6142 77.6142 100 50 100C22.3858 100 0 77.6142 0 50C0 22.3858 22.3858 0 50 0C77.6142 0 100 22.3858 100 50ZM12.5 50C12.5 70.7107 29.2893 87.5 50 87.5C70.7107 87.5 87.5 70.7107 87.5 50C87.5 29.2893 70.7107 12.5 50 12.5C29.2893 12.5 12.5 29.2893 12.5 50Z" fill-rule="evenodd"  fill="#EA5252" >
</path>
<path d="M0 50L12.5 50L12.5 100L0 100L0 50Z"   fill="#EA5252" >
</path>
</svg>
