<svg xmlns="http://www.w3.org/2000/svg" xmlns:xlink="http://www.w3.org/1999/xlink" width="100" height="25" viewBox="0 0 100 25" fill="none">
<path fill="#EA5252"  d="M10.38 16.22C10.38 16.5247 10.14 16.75 10.14 16.75C9.8939 16.9609 9.57 16.96 9.57 16.96C9.23015 16.96 8.98 16.75 8.98 16.75C8.74562 16.5273 8.75 16.22 8.75 16.22L8.75 12.2C8.75 10.9461 7.87 10.07 7.87 10.07C7.01453 9.22625 5.84 9.22 5.84 9.22L5.54 9.22C4.36812 9.22 3.52 10.07 3.52 10.07C2.64109 10.9489 2.64 12.2 2.64 12.2L2.64 16.22C2.64 16.5247 2.39 16.75 2.39 16.75C2.15562 16.9609 1.82 16.96 1.82 16.96C1.48015 16.96 1.23 16.75 1.23 16.75C0.995623 16.5273 0.999998 16.22 0.999998 16.22L0.999998 12.2C0.999998 10.3836 2.3 9.08 2.3 9.08C3.63594 7.74406 5.54 7.75 5.54 7.75L5.84 7.75C7.73844 7.75 9.07 9.08 9.07 9.08C10.3708 10.3808 10.38 12.2 10.38 12.2L10.38 16.22Z">
</path>
<path fill="#000000"  d="M17.44 7.75C19.3384 7.75 20.68 9.08 20.68 9.08C21.9808 10.3808 21.98 12.2 21.98 12.2L21.98 12.5C21.98 14.3164 20.68 15.62 20.68 15.62C19.3441 16.9559 17.44 16.96 17.44 16.96L17.14 16.96C15.2416 16.96 13.9 15.62 13.9 15.62C12.5992 14.3192 12.6 12.5 12.6 12.5L12.6 12.2C12.6 10.3836 13.9 9.08 13.9 9.08C15.2359 7.74406 17.14 7.75 17.14 7.75L17.44 7.75ZM17.14 9.22C15.9681 9.22 15.12 10.07 15.12 10.07C14.2411 10.9489 14.24 12.2 14.24 12.2L14.24 12.5C14.24 13.7539 15.12 14.64 15.12 14.64C15.9637 15.4837 17.14 15.48 17.14 15.48L17.44 15.48C18.6119 15.48 19.47 14.64 19.47 14.64C20.3489 13.7611 20.35 12.5 20.35 12.5L20.35 12.2C20.35 10.9461 19.47 10.07 19.47 10.07C18.6145 9.22625 17.44 9.22 17.44 9.22L17.14 9.22Z">
</path>
<path fill="#000000"  d="M33.58 16.22C33.58 16.5247 33.34 16.75 33.34 16.75C33.0939 16.9609 32.77 16.96 32.77 16.96C32.4302 16.96 32.18 16.75 32.18 16.75C31.9456 16.5273 31.95 16.22 31.95 16.22L31.95 12.2C31.95 10.9461 31.07 10.07 31.07 10.07C30.2145 9.22625 29.04 9.22 29.04 9.22L28.74 9.22C27.5681 9.22 26.72 10.07 26.72 10.07C25.8411 10.9489 25.84 12.2 25.84 12.2L25.84 16.22C25.84 16.5247 25.6 16.75 25.6 16.75C25.3656 16.9609 25.02 16.96 25.02 16.96C24.6802 16.96 24.44 16.75 24.44 16.75C24.2056 16.5273 24.2 16.22 24.2 16.22L24.2 12.2C24.2 10.3836 25.5 9.08 25.5 9.08C26.8359 7.74406 28.74 7.75 28.74 7.75L29.04 7.75C30.9384 7.75 32.28 9.08 32.28 9.08C33.5808 10.3808 33.58 12.2 33.58 12.2L33.58 16.22Z">
</path>
<path fill="#000000"  d="M41.75 15.27C42.0547 15.1411 42.37 15.23 42.37 15.23C42.6864 15.3355 42.84 15.62 42.84 15.62C42.9806 15.8895 42.86 16.18 42.86 16.18C42.7428 16.4612 42.44 16.59 42.44 16.59C41.5845 16.9533 40.34 16.96 40.34 16.96C38.4416 16.96 37.11 15.62 37.11 15.62C35.8092 14.3192 35.8 12.5 35.8 12.5L35.8 12.2C35.8 10.3836 37.11 9.08 37.11 9.08C38.4459 7.74406 40.34 7.75 40.34 7.75L40.64 7.75C42.5384 7.75 43.88 9.08 43.88 9.08C45.1808 10.3808 45.18 12.2 45.18 12.2C45.18 12.5047 44.95 12.71 44.95 12.71C44.7156 12.9327 44.37 12.94 44.37 12.94L39.39 12.94C39.0502 12.94 38.82 12.71 38.82 12.71C38.5856 12.4991 38.58 12.2 38.58 12.2C38.58 11.8953 38.82 11.67 38.82 11.67C39.0544 11.4591 39.39 11.46 39.39 11.46L43.46 11.46C43.2608 10.6514 42.67 10.07 42.67 10.07C41.8145 9.22625 40.64 9.22 40.64 9.22L40.34 9.22C39.1681 9.22 38.32 10.07 38.32 10.07C37.4411 10.9489 37.45 12.2 37.45 12.2L37.45 12.5C37.45 13.7539 38.32 14.64 38.32 14.64C39.1637 15.4837 40.34 15.48 40.34 15.48C41.2189 15.48 41.75 15.27 41.75 15.27Z">
</path>
<path fill="#EA5252"  d="M48.73 21.95C48.73 22.2547 48.5 22.47 48.5 22.47C48.2656 22.6927 47.92 22.69 47.92 22.69C47.5802 22.69 47.34 22.47 47.34 22.47C47.1056 22.2591 47.1 21.95 47.1 21.95L47.1 12.19C47.1 10.3736 48.4 9.07 48.4 9.07C49.7359 7.73406 51.64 7.73 51.64 7.73L51.94 7.73C53.8384 7.73 55.18 9.07 55.18 9.07C56.4808 10.3708 56.48 12.19 56.48 12.19L56.48 12.49C56.48 14.3064 55.18 15.61 55.18 15.61C53.8441 16.9459 51.94 16.95 51.94 16.95L51.64 16.95C51.183 16.95 50.72 16.85 50.72 16.85C50.263 16.7562 49.84 16.58 49.84 16.58C49.5353 16.4511 49.42 16.17 49.42 16.17C49.3028 15.877 49.46 15.61 49.46 15.61C49.6006 15.3287 49.91 15.22 49.91 15.22C50.2264 15.1262 50.54 15.26 50.54 15.26C50.8095 15.3655 51.07 15.42 51.07 15.42C51.3395 15.4669 51.64 15.47 51.64 15.47L51.94 15.47C53.1119 15.47 53.96 14.63 53.96 14.63C54.8389 13.7511 54.84 12.49 54.84 12.49L54.84 12.19C54.84 10.9361 53.96 10.05 53.96 10.05C53.1162 9.20625 51.94 9.21 51.94 9.21L51.64 9.21C50.4681 9.21 49.62 10.05 49.62 10.05C48.7294 10.9289 48.73 12.19 48.73 12.19L48.73 21.95Z">
</path>
<path fill="#000000"  d="M67.73 16.22C67.73 16.5247 67.49 16.75 67.49 16.75C67.2439 16.9609 66.92 16.96 66.92 16.96C66.5802 16.96 66.33 16.75 66.33 16.75C66.0956 16.5273 66.1 16.22 66.1 16.22L66.1 12.2C66.1 10.9461 65.22 10.07 65.22 10.07C64.3645 9.22625 63.19 9.22 63.19 9.22L62.89 9.22C61.7181 9.22 60.87 10.07 60.87 10.07C59.9911 10.9489 59.99 12.2 59.99 12.2L59.99 12.5C59.99 13.7539 60.87 14.64 60.87 14.64C61.7137 15.4837 62.89 15.48 62.89 15.48C63.7689 15.48 64.29 15.27 64.29 15.27C64.5947 15.1411 64.91 15.23 64.91 15.23C65.2264 15.3355 65.38 15.62 65.38 15.62C65.5206 15.8895 65.41 16.18 65.41 16.18C65.2928 16.4612 64.98 16.59 64.98 16.59C64.1245 16.9533 62.89 16.96 62.89 16.96C60.9916 16.96 59.65 15.62 59.65 15.62C58.3492 14.3192 58.35 12.5 58.35 12.5L58.35 12.2C58.35 10.3836 59.65 9.08 59.65 9.08C60.9859 7.74406 62.89 7.75 62.89 7.75L63.19 7.75C65.0884 7.75 66.43 9.08 66.43 9.08C67.7308 10.3808 67.73 12.2 67.73 12.2L67.73 16.22Z">
</path>
<path fill="#000000"  d="M79.68 16.22C79.68 16.5247 79.45 16.75 79.45 16.75C79.2039 16.9609 78.87 16.96 78.87 16.96C78.5302 16.96 78.29 16.75 78.29 16.75C78.0556 16.5273 78.05 16.22 78.05 16.22L78.05 12.2C78.05 10.9461 77.17 10.07 77.17 10.07C76.3145 9.22625 75.14 9.22 75.14 9.22L74.84 9.22C73.6681 9.22 72.82 10.07 72.82 10.07C71.9411 10.9489 71.95 12.2 71.95 12.2L71.95 16.22C71.95 16.5247 71.7 16.75 71.7 16.75C71.4656 16.9609 71.13 16.96 71.13 16.96C70.7902 16.96 70.54 16.75 70.54 16.75C70.3056 16.5273 70.3 16.22 70.3 16.22L70.3 12.2C70.3 10.3836 71.61 9.08 71.61 9.08C72.9459 7.74406 74.84 7.75 74.84 7.75L75.14 7.75C77.0384 7.75 78.38 9.08 78.38 9.08C79.6808 10.3808 79.68 12.2 79.68 12.2L79.68 16.22Z">
</path>
<path fill="#000000"  d="M87.85 15.27C88.1547 15.1411 88.47 15.23 88.47 15.23C88.7864 15.3355 88.94 15.62 88.94 15.62C89.0806 15.8895 88.96 16.18 88.96 16.18C88.8428 16.4612 88.54 16.59 88.54 16.59C87.6845 16.9533 86.44 16.96 86.44 16.96C84.5416 16.96 83.21 15.62 83.21 15.62C81.9092 14.3192 81.91 12.5 81.91 12.5L81.91 12.2C81.91 10.3836 83.21 9.08 83.21 9.08C84.5459 7.74406 86.44 7.75 86.44 7.75L86.75 7.75C88.6484 7.75 89.98 9.08 89.98 9.08C91.2808 10.3808 91.28 12.2 91.28 12.2C91.28 12.5047 91.05 12.71 91.05 12.71C90.8156 12.9327 90.47 12.94 90.47 12.94L85.49 12.94C85.1502 12.94 84.92 12.71 84.92 12.71C84.6856 12.4991 84.68 12.2 84.68 12.2C84.68 11.8953 84.92 11.67 84.92 11.67C85.1544 11.4591 85.49 11.46 85.49 11.46L89.56 11.46C89.3608 10.6514 88.77 10.07 88.77 10.07C87.9145 9.22625 86.75 9.22 86.75 9.22L86.44 9.22C85.2681 9.22 84.43 10.07 84.43 10.07C83.5511 10.9489 83.55 12.2 83.55 12.2L83.55 12.5C83.55 13.7539 84.43 14.64 84.43 14.64C85.2738 15.4837 86.44 15.48 86.44 15.48C87.3189 15.48 87.85 15.27 87.85 15.27Z">
</path>
<path fill="#000000"  d="M93.51 2.73999C93.51 2.4353 93.74 2.22 93.74 2.22C93.9861 1.99734 94.33 1.99999 94.33 1.99999C94.6581 1.99999 94.9 2.22 94.9 2.22C95.1344 2.43093 95.14 2.73999 95.14 2.73999L95.14 12.19C95.14 13.6431 95.96 14.58 95.96 14.58C96.7452 15.4941 98.04 15.49 98.04 15.49C98.3564 15.49 98.61 15.69 98.61 15.69C98.8678 15.9009 98.86 16.22 98.86 16.22C98.86 16.5481 98.61 16.76 98.61 16.76C98.3639 16.9592 98.04 16.96 98.04 16.96C95.9423 16.96 94.67 15.48 94.67 15.48C93.5098 14.1558 93.51 12.19 93.51 12.19L93.51 2.73999Z">
</path>
</svg>
