<svg xmlns="http://www.w3.org/2000/svg" xmlns:xlink="http://www.w3.org/1999/xlink" width="100" height="100" viewBox="0 0 100 100" fill="none">
<path d="M50 100C77.6142 100 100 77.6142 100 50C100 22.3858 77.6142 0 50 0C22.3858 0 0 22.3858 0 50L0 100L12.5 100L12.5 83.0728C21.6618 93.4531 35.0663 100 50 100ZM12.5 50C12.5 70.7107 29.2893 87.5 50 87.5C70.7107 87.5 87.5 70.7107 87.5 50C87.5 29.2893 70.7107 12.5 50 12.5C29.2893 12.5 12.5 29.2893 12.5 50Z" fill-rule="evenodd"  fill="#EA5252" >
</path>
</svg>
